<?xml version="1.0" standalone="no"?>
<!DOCTYPE svg PUBLIC "-//W3C//DTD SVG 20010904//EN"
 "http://www.w3.org/TR/2001/REC-SVG-20010904/DTD/svg10.dtd">
<svg version="1.0" xmlns="http://www.w3.org/2000/svg"
 width="222.000000pt" height="222.000000pt" viewBox="0 0 222.000000 222.000000"
 preserveAspectRatio="xMidYMid meet">
<metadata>
Created by potrace 1.14, written by Peter Selinger 2001-2017
</metadata>
<g transform="translate(0.000000,222.000000) scale(0.100000,-0.100000)"
fill="#000000" stroke="none">
<path d="M1220 2212 c-38 -4 -48 -29 -55 -143 -4 -57 -10 -106 -13 -109 -4 -3
-32 -14 -62 -25 -30 -10 -80 -30 -110 -45 l-55 -28 -26 22 c-14 11 -54 45 -88
74 -34 28 -71 52 -82 52 -28 0 -259 -231 -259 -259 0 -11 33 -59 75 -106 l75
-86 -27 -52 c-14 -29 -36 -81 -48 -116 -24 -72 -16 -68 -147 -75 -47 -2 -95
-9 -107 -15 -23 -13 -24 -24 -21 -256 1 -129 4 -131 130 -140 52 -3 102 -8
111 -11 8 -2 23 -30 33 -62 10 -31 31 -82 47 -113 l28 -57 -69 -79 c-103 -119
-105 -111 40 -254 143 -143 134 -141 253 -40 l79 69 82 -38 c44 -21 96 -41
113 -45 18 -3 35 -10 37 -13 2 -4 7 -54 10 -112 9 -140 8 -139 156 -140 219
-3 228 -2 240 20 6 11 13 57 16 103 4 45 7 91 9 102 2 11 4 23 4 28 1 4 8 7
17 7 24 0 164 61 164 71 0 6 -30 49 -67 97 l-68 87 -78 -22 c-316 -90 -634 55
-767 350 -38 86 -53 158 -53 257 -1 278 170 514 438 605 109 37 270 39 375 6
36 -11 71 -21 77 -21 12 0 143 165 143 180 0 8 -95 51 -150 69 -34 11 -35 12
-38 68 -6 143 -19 192 -50 194 -69 2 -292 3 -312 1z"/>
<path d="M1143 1528 c-11 -14 -9 -125 2 -136 3 -4 119 -7 257 -7 l250 0 20
-25 c27 -33 22 -135 -7 -156 -15 -11 -73 -14 -267 -14 -226 0 -248 -2 -256
-17 -13 -26 -9 -470 4 -483 6 -6 39 -10 75 -8 l64 3 5 174 5 175 205 1 c176 2
210 4 240 20 46 24 57 36 82 92 18 39 22 66 21 143 -1 136 -28 194 -108 231
-36 17 -70 19 -311 19 -206 0 -274 -3 -281 -12z"/>
</g>
</svg>
